<?xml version="1.0" encoding="UTF-8" standalone="no"?>
<svg
   xmlns:dc="http://purl.org/dc/elements/1.1/"
   xmlns:cc="http://creativecommons.org/ns#"
   xmlns:rdf="http://www.w3.org/1999/02/22-rdf-syntax-ns#"
   xmlns:svg="http://www.w3.org/2000/svg"
   xmlns="http://www.w3.org/2000/svg"
   viewBox="0 0 682.66669 682.66669"
   height="682.66669"
   width="682.66669"
   xml:space="preserve"
   id="svg2"
   version="1.1"><metadata
     id="metadata8"><rdf:RDF><cc:Work
         rdf:about=""><dc:format>image/svg+xml</dc:format><dc:type
           rdf:resource="http://purl.org/dc/dcmitype/StillImage" /></cc:Work></rdf:RDF></metadata><defs
     id="defs6" /><g
     transform="matrix(1.3333333,0,0,-1.3333333,0,682.66667)"
     id="g10"><g
       transform="scale(0.1)"
       id="g12"><path
         id="path14"
         style="fill:#000000;fill-opacity:1;fill-rule:nonzero;stroke:none"
         d="m 5096.29,1432.89 -508.01,517.97 c -98.79,100.74 -236.33,158.48 -377.42,158.48 h -263.98 l -61.72,630.93 266.48,83.21 c 206.76,64.53 351.72,245.7 369.34,461.56 l 61.72,755.12 c 3.39,41.25 -27.35,77.46 -68.6,80.82 -41.17,3.36 -77.46,-27.35 -80.82,-68.6 l -61.72,-755.15 c -12.61,-154.61 -116.48,-284.42 -264.61,-330.67 l -246.05,-76.79 c -42.38,131.17 -148.24,231.25 -280.55,266.68 L 3443.2,3697.3 c -28.51,112.5 -113.24,198.68 -219.61,231.76 -9.14,79.53 39.61,264.85 -109.21,438.17 246.4,115.43 290.35,414.06 261.87,685.62 -4.34,41.17 -41.05,70.98 -82.38,66.72 -41.17,-4.3 -71.06,-41.17 -66.72,-82.34 21.99,-209.93 -8.2,-370.82 -87.38,-465.24 -73.32,-87.5 -156.68,-87.69 -171.72,-91.83 -149.85,72.69 -250.08,34.37 -621.57,45.11 -66.13,0 -128.9,-14.37 -185.58,-40 -28.24,5.9 -88.2,25.16 -139.77,86.72 -79.18,94.42 -109.41,255.28 -87.38,465.24 4.3,41.17 -25.59,78.04 -66.76,82.34 -41.17,4.34 -78.04,-25.55 -82.34,-66.72 -26.99,-257.11 9.22,-542.46 232.46,-670.39 -166.06,-176.56 -113.13,-375.27 -122.93,-453.4 -106.37,-33.08 -191.09,-119.26 -219.61,-231.76 l -137.15,-540.85 c -131.64,-35.28 -237.11,-134.5 -279.92,-264.69 l -246.76,77.03 c -148.08,46.25 -251.951,176.05 -264.568,330.66 l -61.723,755.16 c -3.359,41.25 -39.488,71.99 -80.82,68.59 -41.289,-3.36 -71.988,-39.53 -68.629,-80.82 l 61.719,-755.11 c 17.66,-215.86 162.621,-397.04 369.332,-461.57 l 266.799,-83.28 -18.94,-193.79 c -4.03,-41.21 26.09,-77.89 67.3,-81.91 41.25,-4.06 77.89,26.13 81.91,67.3 l 24.85,254.03 c 14.3,137.89 127.15,232.54 255.9,232.54 h 440.19 c 0.82,-131.06 -2.81,-159.34 6.6,-215.67 33.95,-203.51 195.82,-359.06 393.25,-390.51 V 636.371 C 2466.8,619.301 2137.27,289.77 2123.12,275.59 2101.6,254.059 2068.55,247.699 2040.86,259.801 1523.28,485.738 1214.49,1014.84 1269.22,1574.14 l 66.52,680 c 4.03,41.21 -26.13,77.89 -67.3,81.91 -41.21,4.03 -77.89,-26.09 -81.92,-67.3 L 1171.13,2111.6 H 906.91 c -141.09,0 -278.672,-57.77 -377.461,-158.51 L 21.4805,1435.12 C -24.9609,1387.77 8.94922,1307.66 75,1307.66 c 57.621,0 34.02,14.53 561.52,540.46 70.781,72.15 169.3,113.52 270.39,113.52 h 249.61 c -26.87,-317.5 -53.36,-425.31 -39.8,-617.66 L 812.34,1099.61 C 733.91,1036.6 675.27,952.93 642.891,857.699 L 385.551,101.371 C 372.191,62.1484 393.16,19.5703 432.34,6.25 c 39.301,-13.35938 81.84,7.6992 95.121,46.8008 l 257.34,756.3282 c 54.73,160.851 173.597,200.851 354.849,360.741 88.98,-458.089 396.48,-853.6 841.25,-1047.741 29.14,-12.731 59.69,-18.899 89.96,-18.899 112.93,0 169.1,79.961 180.23,87.969 202.46,-43.871 413.09,-43.91 615.63,0 11.25,-8.09 67.23,-87.969 180.27,-87.969 30.24,0 60.82,6.168 89.92,18.86 204.07,89.109 387.89,227.039 531.53,398.871 26.56,31.758 22.34,79.059 -9.42,105.59 -31.79,26.558 -79.06,22.34 -105.58,-9.422 -128.87,-154.098 -293.6,-277.77 -476.53,-357.609 -27.65,-12.071 -60.7,-5.75 -82.22,15.82 -4.26,4.211 -54.53,54.488 -51.33,51.289 L 2633.91,636.371 V 2414.41 c 227.54,36.25 399.8,233.95 399.8,468.87 v 137.31 h 440.2 c 132.14,0 241.6,-98.64 255.58,-229.77 0.04,-1.09 118.91,-1215.2 119.06,-1216.68 24.97,-254.88 -25.03,-508.4 -144.53,-733.089 -19.45,-36.563 -5.58,-81.949 30.98,-101.403 36.6,-19.449 81.95,-5.546 101.41,31.012 66.87,125.711 114.21,259.5 141.32,397.5 182,-160.5 300.55,-200.308 355.2,-361.012 L 4590.31,50.8203 C 4600.94,19.6094 4630.04,0 4661.25,0 c 51.09,0 87.58,50.3516 71.02,99.1406 L 4474.88,855.43 c -32.42,95.269 -91.01,178.95 -169.49,241.91 l -304.61,244.61 c 13.99,193.56 -11.91,293.13 -39.26,617.46 h 249.34 c 101.05,0 199.61,-41.36 270.39,-113.51 l 507.97,-518.01 c 28.94,-29.53 76.4,-30.08 106.01,-1.05 29.57,29.02 30.04,76.48 1.06,106.05 z m -2325,2942.42 c 166.76,0 302.38,-135.62 302.38,-302.34 v -129.1 H 2044.14 v 129.1 c 0,166.72 135.63,302.34 302.34,302.34 z m -390.98,-4054.572 178.6,178.563 178.55,-178.563 c -118.05,-16.328 -239.06,-16.289 -357.15,0 z m 503.44,2562.542 c 0,-179.1 -145.7,-324.84 -324.84,-324.84 -179.14,0 -324.85,145.74 -324.85,324.84 v 137.31 h 649.69 z m -1188.09,287.23 124.26,489.92 c 19.92,78.59 90.47,133.48 171.56,133.48 h 1134.85 c 81.09,0 151.64,-54.89 171.56,-133.48 l 124.26,-489.92 c -186.06,0 -1548.13,0 -1726.49,0 z" /></g></g></svg>