<?xml version="1.0" encoding="UTF-8" standalone="no"?>
<svg
   xmlns:dc="http://purl.org/dc/elements/1.1/"
   xmlns:cc="http://creativecommons.org/ns#"
   xmlns:rdf="http://www.w3.org/1999/02/22-rdf-syntax-ns#"
   xmlns:svg="http://www.w3.org/2000/svg"
   xmlns="http://www.w3.org/2000/svg"
   viewBox="0 0 64 64"
   height="64"
   width="64"
   xml:space="preserve"
   id="svg2"
   version="1.1"><metadata
     id="metadata8"><rdf:RDF><cc:Work
         rdf:about=""><dc:format>image/svg+xml</dc:format><dc:type
           rdf:resource="http://purl.org/dc/dcmitype/StillImage" /></cc:Work></rdf:RDF></metadata><defs
     id="defs6" /><g
     transform="matrix(1.3333333,0,0,-1.3333333,0,64)"
     id="g10"><g
       transform="scale(0.1)"
       id="g12"><path
         id="path14"
         style="fill:#000000;fill-opacity:1;fill-rule:nonzero;stroke:none"
         d="M 240,480 C 107.66,480 0,372.34 0,240 0,107.66 107.66,0 240,0 372.34,0 480,107.66 480,240 480,372.34 372.34,480 240,480 Z M 240,16.0195 C 116.48,16.0195 16.0195,116.48 16.0195,240 16.0195,363.52 116.48,463.98 240,463.98 363.52,463.98 463.98,363.52 463.98,240 463.98,116.48 363.52,16.0195 240,16.0195 Z" /><path
         id="path16"
         style="fill:#000000;fill-opacity:1;fill-rule:nonzero;stroke:none"
         d="m 248.012,271.84 v 81.129 c 0,4.41 -3.602,8.011 -8.012,8.011 -4.41,0 -8.012,-3.601 -8.012,-8.011 V 271.84 c -11.168,-2.93 -19.957,-11.68 -22.847,-22.86 h -57.153 c -4.41,0 -8.008,-3.589 -8.008,-8 0,-4.421 3.598,-8.011 8.008,-8.011 h 57.153 c 3.558,-13.75 15.98,-23.989 30.859,-23.989 17.66,0 31.988,14.34 31.988,32 0,14.879 -10.226,27.258 -23.976,30.86 z M 240,224.961 c -8.828,0 -16.02,7.187 -16.02,16.019 0,8.821 7.192,15.969 16.02,15.969 8.828,0 16.02,-7.148 16.02,-15.969 0,-8.832 -7.192,-16.019 -16.02,-16.019 z" /><path
         id="path18"
         style="fill:#000000;fill-opacity:1;fill-rule:nonzero;stroke:none"
         d="m 240,400.98 c 4.41,0 8.012,3.551 8.012,8 v 7.969 c 0,4.461 -3.602,8.012 -8.012,8.012 -4.41,0 -8.012,-3.551 -8.012,-8.012 v -7.969 c 0,-4.449 3.602,-8 8.012,-8 z" /><path
         id="path20"
         style="fill:#000000;fill-opacity:1;fill-rule:nonzero;stroke:none"
         d="m 240,80.9805 c -4.41,0 -8.012,-3.6016 -8.012,-8.0117 v -8.0079 c 0,-4.4101 3.602,-8.0117 8.012,-8.0117 4.41,0 8.012,3.6016 8.012,8.0117 v 8.0079 c 0,4.4101 -3.602,8.0117 -8.012,8.0117 z" /><path
         id="path22"
         style="fill:#000000;fill-opacity:1;fill-rule:nonzero;stroke:none"
         d="m 416.02,248.98 h -8.008 c -4.422,0 -8.012,-3.589 -8.012,-8 0,-4.421 3.59,-8.011 8.012,-8.011 h 8.008 c 4.41,0 7.96,3.59 7.96,8.011 0,4.411 -3.55,8 -7.96,8 z" /><path
         id="path24"
         style="fill:#000000;fill-opacity:1;fill-rule:nonzero;stroke:none"
         d="m 71.9883,248.98 h -8.0078 c -4.4102,0 -7.961,-3.589 -7.961,-8 0,-4.421 3.5508,-8.011 7.961,-8.011 h 8.0078 c 4.4219,0 8.0117,3.59 8.0117,8.011 0,4.411 -3.5898,8 -8.0117,8 z" /><path
         id="path26"
         style="fill:#000000;fill-opacity:1;fill-rule:nonzero;stroke:none"
         d="m 358.789,371.09 -5.668,-5.66 c -3.121,-3.129 -3.121,-8.2 0,-11.328 1.57,-1.563 3.641,-2.34 5.668,-2.34 2.07,0 4.102,0.777 5.66,2.34 l 5.672,5.668 c 3.117,3.121 3.117,8.199 0,11.32 -3.133,3.129 -8.211,3.129 -11.332,0 z" /><path
         id="path28"
         style="fill:#000000;fill-opacity:1;fill-rule:nonzero;stroke:none"
         d="m 115.551,127.809 -5.672,-5.618 c -3.117,-3.132 -3.117,-8.211 0,-11.332 1.57,-1.558 3.641,-2.339 5.672,-2.339 2.07,0 4.097,0.781 5.66,2.339 l 5.668,5.661 c 3.121,3.128 3.121,8.171 0,11.289 -3.129,3.171 -8.207,3.132 -11.328,0 z" /><path
         id="path30"
         style="fill:#000000;fill-opacity:1;fill-rule:nonzero;stroke:none"
         d="m 364.449,127.809 c -3.121,3.171 -8.199,3.171 -11.328,0 -3.121,-3.118 -3.121,-8.161 0,-11.289 l 5.668,-5.661 c 1.563,-1.558 3.59,-2.339 5.66,-2.339 2.031,0 4.102,0.781 5.672,2.339 3.117,3.121 3.117,8.2 0,11.332 z" /><path
         id="path32"
         style="fill:#000000;fill-opacity:1;fill-rule:nonzero;stroke:none"
         d="m 121.211,371.09 c -3.121,3.129 -8.199,3.129 -11.332,0 -3.117,-3.121 -3.117,-8.199 0,-11.32 l 5.672,-5.668 c 1.558,-1.563 3.59,-2.34 5.66,-2.34 2.027,0 4.098,0.777 5.668,2.34 3.121,3.128 3.121,8.199 0,11.328 z" /></g></g></svg>