<?xml version="1.0" encoding="UTF-8" standalone="no"?>
<svg
   xmlns:dc="http://purl.org/dc/elements/1.1/"
   xmlns:cc="http://creativecommons.org/ns#"
   xmlns:rdf="http://www.w3.org/1999/02/22-rdf-syntax-ns#"
   xmlns:svg="http://www.w3.org/2000/svg"
   xmlns="http://www.w3.org/2000/svg"
   viewBox="0 0 124 125.33333"
   height="125.33333"
   width="124"
   xml:space="preserve"
   id="svg2"
   version="1.1"><metadata
     id="metadata8"><rdf:RDF><cc:Work
         rdf:about=""><dc:format>image/svg+xml</dc:format><dc:type
           rdf:resource="http://purl.org/dc/dcmitype/StillImage" /></cc:Work></rdf:RDF></metadata><defs
     id="defs6" /><g
     transform="matrix(1.3333333,0,0,-1.3333333,0,125.33333)"
     id="g10"><g
       transform="scale(0.1)"
       id="g12"><path
         id="path14"
         style="fill:#000000;fill-opacity:1;fill-rule:nonzero;stroke:none"
         d="m 272.379,502.012 c -12.77,12.769 -33.59,12.769 -46.359,0 -12.821,-12.813 -12.821,-33.59 0,-46.41 L 377.191,304.391 c 6.399,-6.403 14.411,-9.61 23.2,-9.61 h 1.597 c 8.793,0.821 17.621,4.809 24.032,12.039 l 378.39,453.59 c 11.18,13.59 9.57,34.371 -4.019,46.41 -13.59,11.168 -34.371,9.571 -46.411,-4.031 L 398.012,376.391 Z" /><path
         id="path16"
         style="fill:#000000;fill-opacity:1;fill-rule:nonzero;stroke:none"
         d="m 709.219,868.422 c -184.02,115.187 -420,87.969 -573.629,-65.633 -180.7892,-180.777 -180.7892,-475.969 0,-656.801 90.43,-90.3864 209.609,-135.9685 328,-135.9685 118.398,0 237.621,45.5821 328.012,135.9685 154.418,154.422 180.777,391.223 64.808,575.203 -9.609,15.2 -29.609,20 -44.808,10.387 -15.192,-9.566 -20,-29.566 -10.391,-44.758 100,-158.398 76.801,-361.609 -56.012,-494.422 C 590,37.2109 336.41,37.2109 181.211,192.398 26.0195,347.602 26.0195,601.191 181.211,756.391 313.98,888.422 516.41,911.578 674.801,813.18 690,803.609 710,808.422 719.609,823.609 c 9.61,15.2 4.801,35.2 -10.39,44.813 z" /></g></g></svg>