<?xml version="1.0" encoding="UTF-8" standalone="no"?>
<svg
   xmlns:dc="http://purl.org/dc/elements/1.1/"
   xmlns:cc="http://creativecommons.org/ns#"
   xmlns:rdf="http://www.w3.org/1999/02/22-rdf-syntax-ns#"
   xmlns:svg="http://www.w3.org/2000/svg"
   xmlns="http://www.w3.org/2000/svg"
   viewBox="0 0 545.33331 482.66666"
   height="482.66666"
   width="545.33331"
   xml:space="preserve"
   id="svg2"
   version="1.1"><metadata
     id="metadata8"><rdf:RDF><cc:Work
         rdf:about=""><dc:format>image/svg+xml</dc:format><dc:type
           rdf:resource="http://purl.org/dc/dcmitype/StillImage" /></cc:Work></rdf:RDF></metadata><defs
     id="defs6" /><g
     transform="matrix(1.3333333,0,0,-1.3333333,0,482.66667)"
     id="g10"><g
       transform="scale(0.1)"
       id="g12"><path
         id="path14"
         style="fill:#000000;fill-opacity:1;fill-rule:nonzero;stroke:none"
         d="m 2045.04,3273.52 c -37.66,0 -68.2,30.54 -68.2,68.2 v 204.49 c 0,37.66 30.54,68.2 68.2,68.2 37.62,0 68.12,-30.54 68.12,-68.2 v -204.49 c 0,-37.66 -30.5,-68.2 -68.12,-68.2 z" /><path
         id="path16"
         style="fill:#000000;fill-opacity:1;fill-rule:nonzero;stroke:none"
         d="m 2045.04,3273.52 c -37.66,0 -68.2,30.54 -68.2,68.2 v 204.49 c 0,37.66 30.54,68.2 68.2,68.2 37.62,0 68.12,-30.54 68.12,-68.2 v -204.49 c 0,-37.66 -30.5,-68.2 -68.12,-68.2 z" /><path
         id="path18"
         style="fill:#000000;fill-opacity:1;fill-rule:nonzero;stroke:none"
         d="m 1704.18,2932.7 h -204.49 c -37.66,0 -68.21,30.54 -68.21,68.2 0,37.62 30.55,68.16 68.21,68.16 h 204.49 c 37.66,0 68.16,-30.54 68.16,-68.16 0,-37.66 -30.5,-68.2 -68.16,-68.2 z" /><path
         id="path20"
         style="fill:#000000;fill-opacity:1;fill-rule:nonzero;stroke:none"
         d="m 2590.35,2932.7 h -204.49 c -37.66,0 -68.2,30.54 -68.2,68.2 0,37.62 30.54,68.16 68.2,68.16 h 204.49 c 37.66,0 68.17,-30.54 68.17,-68.16 0,-37.66 -30.51,-68.2 -68.17,-68.2 z" /><path
         id="path22"
         style="fill:#000000;fill-opacity:1;fill-rule:nonzero;stroke:none"
         d="m 1704.18,2932.7 h -204.49 c -37.66,0 -68.21,30.54 -68.21,68.2 0,37.62 30.55,68.16 68.21,68.16 h 204.49 c 37.66,0 68.16,-30.54 68.16,-68.16 0,-37.66 -30.5,-68.2 -68.16,-68.2 z" /><path
         id="path24"
         style="fill:#000000;fill-opacity:1;fill-rule:nonzero;stroke:none"
         d="m 2590.35,2932.7 h -204.49 c -37.66,0 -68.2,30.54 -68.2,68.2 0,37.62 30.54,68.16 68.2,68.16 h 204.49 c 37.66,0 68.17,-30.54 68.17,-68.16 0,-37.66 -30.51,-68.2 -68.17,-68.2 z" /><path
         id="path26"
         style="fill:#000000;fill-opacity:1;fill-rule:nonzero;stroke:none"
         d="m 1804.02,3173.71 c -17.46,0 -34.92,6.68 -48.24,19.96 l -144.57,144.61 c -26.6,26.64 -26.6,69.77 0,96.37 26.64,26.64 69.77,26.64 96.37,0 l 144.61,-144.53 c 26.64,-26.64 26.64,-69.81 0,-96.45 -13.32,-13.28 -30.74,-19.96 -48.17,-19.96 z" /><path
         id="path28"
         style="fill:#000000;fill-opacity:1;fill-rule:nonzero;stroke:none"
         d="m 1804.02,3173.71 c -17.46,0 -34.92,6.68 -48.24,19.96 l -144.57,144.61 c -26.6,26.64 -26.6,69.77 0,96.37 26.64,26.64 69.77,26.64 96.37,0 l 144.61,-144.53 c 26.64,-26.64 26.64,-69.81 0,-96.45 -13.32,-13.28 -30.74,-19.96 -48.17,-19.96 z" /><path
         id="path30"
         style="fill:#000000;fill-opacity:1;fill-rule:nonzero;stroke:none"
         d="m 2286.05,3173.71 c -17.46,0 -34.88,6.68 -48.24,19.96 -26.6,26.64 -26.6,69.81 0,96.45 l 144.61,144.53 c 26.6,26.64 69.77,26.64 96.37,0 26.64,-26.6 26.64,-69.73 0,-96.37 l -144.57,-144.61 c -13.32,-13.28 -30.74,-19.96 -48.17,-19.96 z" /><path
         id="path32"
         style="fill:#000000;fill-opacity:1;fill-rule:nonzero;stroke:none"
         d="m 2286.05,3173.71 c -17.46,0 -34.88,6.68 -48.24,19.96 -26.6,26.64 -26.6,69.81 0,96.45 l 144.61,144.53 c 26.6,26.64 69.77,26.64 96.37,0 26.64,-26.6 26.64,-69.73 0,-96.37 l -144.57,-144.61 c -13.32,-13.28 -30.74,-19.96 -48.17,-19.96 z" /><path
         id="path34"
         style="fill:#000000;fill-opacity:1;fill-rule:nonzero;stroke:none"
         d="m 749.84,1.51953 c -37.649,0 -68.16,30.55077 -68.16,68.17187 V 235.551 C 605.781,285.23 434.379,422.148 333.711,695.352 218.828,1007.23 20.0391,1225.51 18.0508,1227.7 4.96094,1241.91 -1.51953,1261.09 0.308594,1280.31 4.21875,1321.41 32.1484,1401.6 112.23,1441.52 c 89.18,44.42 209.18,27.89 364.918,-51.01 v 894.57 c 0,131.6 107.032,238.59 238.59,238.59 131.532,0 238.602,-106.99 238.602,-238.59 v -852.03 c 0,-37.62 -30.551,-68.17 -68.168,-68.17 -37.652,0 -68.203,30.55 -68.203,68.17 v 852.03 c 0,56.4 -45.821,102.3 -102.231,102.3 -56.398,0 -102.218,-45.9 -102.218,-102.3 V 1273.87 c 0,-24.69 -13.36,-47.46 -34.969,-59.49 -21.602,-12 -47.93,-11.41 -68.942,1.44 -218.238,134.26 -307.23,117.7 -335.429,104.34 -15.2,-7.31 -24.532,-19.07 -30.121,-29.73 61.332,-73.24 217.113,-275.31 317.582,-547.969 C 572.422,441.762 778.199,336.172 780.27,335.16 c 23.089,-11.488 37.699,-35.121 37.699,-60.941 V 69.6914 C 817.969,32.0703 787.5,1.51953 749.84,1.51953 Z" /><path
         id="path36"
         style="fill:#000000;fill-opacity:1;fill-rule:nonzero;stroke:none"
         d="m 1704.18,0.699219 c -37.66,0 -68.16,30.550781 -68.16,68.171881 V 441.41 c 0,19.18 8.04,37.379 22.1,50.27 l 110.9,101.519 c 46.8,75.711 71.49,162.539 71.49,251.68 V 2150.86 c 0,55.23 -44.92,100.19 -100.2,100.19 -55.23,0 -100.15,-44.96 -100.15,-100.19 V 1415.7 c 0,-37.65 -30.55,-68.16 -68.21,-68.16 -37.61,0 -68.16,30.51 -68.16,68.16 v 735.16 c 0,130.43 106.13,236.56 236.52,236.56 130.39,0 236.53,-106.13 236.53,-236.56 V 844.879 c 0,-118.16 -33.79,-233.199 -97.66,-332.609 -3.2,-4.969 -6.99,-9.5 -11.33,-13.481 l -95.51,-87.418 V 68.8711 c 0,-37.6211 -30.5,-68.171881 -68.16,-68.171881 z" /><path
         id="path38"
         style="fill:#000000;fill-opacity:1;fill-rule:nonzero;stroke:none"
         d="m 1226.99,1364.92 c -37.61,0 -68.12,30.51 -68.12,68.13 v 850 c 0,132.73 107.93,240.62 240.62,240.62 132.7,0 240.67,-107.89 240.67,-240.62 v -136.06 c 0,-37.65 -30.55,-68.2 -68.21,-68.2 -37.61,0 -68.16,30.55 -68.16,68.2 v 136.06 c 0,57.5 -46.76,104.33 -104.3,104.33 -57.5,0 -104.29,-46.83 -104.29,-104.33 v -850 c 0,-37.62 -30.55,-68.13 -68.21,-68.13 z" /><path
         id="path40"
         style="fill:#000000;fill-opacity:1;fill-rule:nonzero;stroke:none"
         d="m 886.172,1364.92 c -37.652,0 -68.203,30.51 -68.203,68.13 v 988.4 c 0,131.56 107.07,238.59 238.591,238.59 131.6,0 238.64,-107.03 238.64,-238.59 v -274.46 c 0,-37.65 -30.55,-68.2 -68.21,-68.2 -37.61,0 -68.12,30.55 -68.12,68.2 v 274.46 c 0,56.4 -45.9,102.22 -102.31,102.22 -56.36,0 -102.22,-45.82 -102.22,-102.22 v -988.4 c 0,-37.62 -30.551,-68.13 -68.168,-68.13 z" /><path
         id="path42"
         style="fill:#000000;fill-opacity:1;fill-rule:nonzero;stroke:none"
         d="m 3340.2,1.51953 c -37.7,0 -68.17,30.55077 -68.17,68.17187 V 274.219 c 0,25.82 14.57,49.453 37.7,60.941 1.79,0.93 209.02,109.762 318.63,407.301 100.47,272.699 256.25,474.809 317.58,548.009 -5.55,10.58 -14.85,22.38 -30.12,29.69 -28.24,13.32 -117.3,29.92 -335.43,-104.34 -20.98,-12.85 -47.34,-13.48 -68.94,-1.44 -21.61,12.03 -34.97,34.8 -34.97,59.49 v 1011.21 c 0,56.4 -45.82,102.3 -102.22,102.3 -56.41,0 -102.23,-45.9 -102.23,-102.3 v -852.03 c 0,-37.62 -30.55,-68.17 -68.2,-68.17 -37.62,0 -68.17,30.55 -68.17,68.17 v 852.03 c 0,131.6 107.04,238.59 238.6,238.59 131.52,0 238.59,-106.99 238.59,-238.59 v -894.57 c 155.74,78.9 275.74,95.43 364.92,51.01 80.08,-39.92 108.05,-120.11 111.92,-161.21 1.83,-19.22 -4.65,-38.4 -17.74,-52.61 -1.99,-2.19 -200.78,-220.47 -315.62,-532.348 C 3655.62,422.148 3484.22,285.23 3408.36,235.551 V 69.6914 c 0,-37.6211 -30.51,-68.17187 -68.16,-68.17187 z" /><path
         id="path44"
         style="fill:#000000;fill-opacity:1;fill-rule:nonzero;stroke:none"
         d="m 2385.86,0.699219 c -37.66,0 -68.2,30.550781 -68.2,68.171881 V 411.41 l -95.47,87.418 c -4.34,3.981 -8.17,8.473 -11.33,13.442 -63.91,99.41 -97.7,214.449 -97.7,332.609 V 2150.86 c 0,130.43 106.14,236.56 236.53,236.56 130.39,0 236.52,-106.13 236.52,-236.56 v -735.12 c 0,-37.69 -30.55,-68.2 -68.16,-68.2 -37.66,0 -68.17,30.51 -68.17,68.2 v 735.12 c 0,55.27 -44.92,100.23 -100.19,100.23 -55.24,0 -100.16,-45 -100.16,-100.23 V 844.879 c 0,-89.141 24.69,-175.93 71.45,-251.68 l 110.9,-101.519 c 14.14,-12.891 22.1,-31.09 22.1,-50.27 V 68.8711 c 0,-37.6211 -30.5,-68.171881 -68.12,-68.171881 z" /><path
         id="path46"
         style="fill:#000000;fill-opacity:1;fill-rule:nonzero;stroke:none"
         d="m 2863.01,1364.92 c -37.66,0 -68.17,30.51 -68.17,68.13 v 850 c 0,57.5 -46.79,104.33 -104.33,104.33 -57.46,0 -104.3,-46.83 -104.3,-104.33 v -136.06 c 0,-37.65 -30.55,-68.2 -68.16,-68.2 -37.66,0 -68.17,30.55 -68.17,68.2 v 136.06 c 0,132.73 107.93,240.62 240.63,240.62 132.69,0 240.66,-107.89 240.66,-240.62 v -850 c 0,-37.62 -30.51,-68.13 -68.16,-68.13 z" /><path
         id="path48"
         style="fill:#000000;fill-opacity:1;fill-rule:nonzero;stroke:none"
         d="m 3203.83,1364.92 c -37.62,0 -68.13,30.51 -68.13,68.13 v 988.4 c 0,56.4 -45.9,102.22 -102.26,102.22 -56.37,0 -102.27,-45.82 -102.27,-102.22 v -274.46 c 0,-37.65 -30.51,-68.2 -68.16,-68.2 -37.66,0 -68.17,30.55 -68.17,68.2 v 274.46 c 0,131.56 107.04,238.59 238.6,238.59 131.56,0 238.59,-107.03 238.59,-238.59 v -988.4 c 0,-37.62 -30.55,-68.13 -68.2,-68.13 z" /></g></g></svg>