<?xml version="1.0" encoding="UTF-8" standalone="no"?>
<svg
   xmlns:dc="http://purl.org/dc/elements/1.1/"
   xmlns:cc="http://creativecommons.org/ns#"
   xmlns:rdf="http://www.w3.org/1999/02/22-rdf-syntax-ns#"
   xmlns:svg="http://www.w3.org/2000/svg"
   xmlns="http://www.w3.org/2000/svg"
   viewBox="0 0 529.22979 532.10638"
   height="532.10638"
   width="529.2298"
   xml:space="preserve"
   id="svg2"
   version="1.1"><metadata
     id="metadata8"><rdf:RDF><cc:Work
         rdf:about=""><dc:format>image/svg+xml</dc:format><dc:type
           rdf:resource="http://purl.org/dc/dcmitype/StillImage" /></cc:Work></rdf:RDF></metadata><defs
     id="defs6" /><g
     transform="matrix(1.3333333,0,0,-1.3333333,-1.7591025e-6,532.10579)"
     id="g10"><g
       transform="scale(0.1)"
       id="g12"><path
         id="path14"
         style="fill:#131112;fill-opacity:1;fill-rule:nonzero;stroke:none"
         d="m 3327.81,2686.99 353.6,204.4 c 34.57,20.11 46.3,64.43 26.2,99 -20.1,34.58 -64.43,46.31 -99,26.2 l -353.6,-204.4 c -34.57,-20.1 -46.3,-64.42 -26.2,-99 20.1,-34.57 64.43,-46.3 99,-26.2 v 0" /><path
         id="path16"
         style="fill:#131112;fill-opacity:1;fill-rule:nonzero;stroke:none"
         d="m 3255.01,1178.19 353.6,-204.401 c 34.57,-20.098 78.9,-8.367 99,26.203 20.1,34.578 8.37,78.898 -26.2,98.998 v 0 l -353.6,204.4 c -34.57,20.11 -78.9,8.38 -99,-26.2 -20.1,-34.57 -8.37,-78.89 26.2,-99" /><path
         id="path18"
         style="fill:#131112;fill-opacity:1;fill-rule:nonzero;stroke:none"
         d="M 2057.41,78.1914 V 486.59 c 2.98,40.101 -27.11,75.019 -67.21,78 -40.09,2.969 -75.01,-27.121 -77.99,-67.211 -0.27,-3.59 -0.27,-7.199 0,-10.789 V 78.1914 c -2.98,-40.0898 27.11,-75.01171 67.21,-77.992181 40.09,-2.980469 75.01,27.109381 77.99,67.210981 0.27,3.5898 0.27,7.1914 0,10.7812" /><path
         id="path20"
         style="fill:#131112;fill-opacity:1;fill-rule:nonzero;stroke:none"
         d="m 287.813,2891.39 353.597,-204.4 c 34.574,-20.1 78.899,-8.37 99,26.2 20.106,34.58 8.375,78.9 -26.199,99 l -353.602,204.4 c -34.57,20.11 -78.894,8.38 -99,-26.2 -20.101,-34.57 -8.371,-78.89 26.204,-99" /><path
         id="path22"
         style="fill:#131112;fill-opacity:1;fill-rule:nonzero;stroke:none"
         d="m 1984.61,3431.79 c 40.21,0 72.8,32.6 72.8,72.8 v 408 c 2.98,40.1 -27.11,75.02 -67.21,78 -40.09,2.98 -75.01,-27.11 -77.99,-67.21 -0.27,-3.59 -0.27,-7.2 0,-10.79 V 3504.2 c 0.22,-39.9 32.51,-72.19 72.4,-72.41" /><path
         id="path24"
         style="fill:#131112;fill-opacity:1;fill-rule:nonzero;stroke:none"
         d="m 1167.41,3265.79 c 20.1,-34.57 64.43,-46.3 99,-26.2 34.57,20.11 46.3,64.43 26.2,99 v 0 l -204,353.61 c -20.1,34.57 -64.43,46.3 -99.001,26.19 -34.57,-20.1 -46.3,-64.42 -26.199,-99 l 204,-353.6" /><path
         id="path26"
         style="fill:#131112;fill-opacity:1;fill-rule:nonzero;stroke:none"
         d="m 1411.41,1922.59 c 40.05,0.22 72.4,32.75 72.4,72.8 -0.22,276.37 223.64,500.58 500,500.8 0.27,0 0.53,0 0.8,0 40.1,-2.97 75.02,27.12 77.99,67.21 2.98,40.1 -27.11,75.02 -67.2,77.99 -3.59,0.27 -7.2,0.27 -10.79,0 -356.77,0 -646,-289.22 -646,-646 v 0 c 0,-40.2 32.59,-72.8 72.8,-72.8" /><path
         id="path28"
         style="fill:#131112;fill-opacity:1;fill-rule:nonzero;stroke:none"
         d="m 3901.81,2068.19 h -408.4 c -40.09,2.98 -75.01,-27.11 -77.99,-67.2 -2.98,-40.1 27.11,-75.02 67.2,-78 3.59,-0.26 7.2,-0.26 10.79,0 h 408.4 c 40.1,2.98 70.19,37.9 67.21,78 -2.67,35.95 -31.26,64.53 -67.21,67.2 v 0" /><path
         id="path30"
         style="fill:#131112;fill-opacity:1;fill-rule:nonzero;stroke:none"
         d="M 67.4102,1922.59 H 475.813 c 40.093,-2.97 75.011,27.12 77.992,67.21 2.976,40.1 -27.114,75.02 -67.207,77.99 -3.59,0.27 -7.196,0.27 -10.785,0 H 67.4102 C 27.3164,2064.82 -2.77344,2029.9 0.203125,1989.8 2.875,1953.85 31.457,1925.26 67.4102,1922.59" /><path
         id="path32"
         style="fill:#131112;fill-opacity:1;fill-rule:nonzero;stroke:none"
         d="m 1331.81,2646.99 c 360.53,360.53 945.07,360.53 1305.6,0 360.53,-360.53 360.53,-945.07 0,-1305.6 -360.53,-360.531 -945.07,-360.531 -1305.6,0 -173.43,173.43 -270.72,408.74 -270.4,654 -0.35,244.92 96.97,479.87 270.4,652.8 z m 652.8,-1720.002 c 590.06,-0.078 1068.47,478.202 1068.55,1068.262 0.08,590.06 -478.2,1068.46 -1068.26,1068.54 -590.06,0.09 -1068.462,-478.19 -1068.545,-1068.25 -0.039,-283.47 112.575,-555.34 313.055,-755.75 200.09,-200.58 471.88,-313.149 755.2,-312.802" /><path
         id="path34"
         style="fill:#131112;fill-opacity:1;fill-rule:nonzero;stroke:none"
         d="m 2979.41,272.191 c 34.65,19.969 46.55,64.239 26.59,98.879 -0.06,0.11 -0.13,0.219 -0.19,0.321 l -204.4,353.601 c -20.1,34.578 -64.43,46.309 -99,26.199 -34.57,-20.101 -46.3,-64.421 -26.2,-99 l 204.4,-353.601 c 20.03,-34.531 64.22,-46.34 98.8,-26.399 v 0" /><path
         id="path36"
         style="fill:#131112;fill-opacity:1;fill-rule:nonzero;stroke:none"
         d="m 2704.61,3239.39 c 34.54,-20.14 78.87,-8.46 99.01,26.08 0.07,0.11 0.13,0.22 0.19,0.32 l 204.4,353.6 c 20.1,34.58 8.37,78.9 -26.2,99 -34.57,20.11 -78.9,8.38 -99,-26.19 l -204.4,-353.61 c -20.24,-34.48 -8.68,-78.84 25.8,-99.08 0.07,-0.04 0.14,-0.08 0.2,-0.12 v 0" /><path
         id="path38"
         style="fill:#131112;fill-opacity:1;fill-rule:nonzero;stroke:none"
         d="m 1088.61,298.59 204.4,353.601 c 20.1,34.579 8.37,78.899 -26.2,99 -34.57,20.11 -78.9,8.379 -99,-26.199 v 0 L 963.41,371.391 c -20.101,-34.571 -8.371,-78.891 26.199,-99 34.571,-20.102 78.901,-8.371 99.001,26.199 v 0" /><path
         id="path40"
         style="fill:#131112;fill-opacity:1;fill-rule:nonzero;stroke:none"
         d="m 641.41,1303.79 -353.597,-204.4 c -34.575,-20.1 -46.305,-64.42 -26.204,-99 20.106,-34.57 64.43,-46.3 99,-26.199 v 0 l 353.602,204.399 c 34.574,20.11 46.305,64.43 26.199,99 -20.101,34.58 -64.426,46.31 -99,26.2" /></g></g></svg>