<?xml version="1.0" encoding="UTF-8" standalone="no"?>
<svg
   xmlns:dc="http://purl.org/dc/elements/1.1/"
   xmlns:cc="http://creativecommons.org/ns#"
   xmlns:rdf="http://www.w3.org/1999/02/22-rdf-syntax-ns#"
   xmlns:svg="http://www.w3.org/2000/svg"
   xmlns="http://www.w3.org/2000/svg"
   viewBox="0 0 266.23999 270.78668"
   height="270.78668"
   width="266.23999"
   xml:space="preserve"
   id="svg2"
   version="1.1"><metadata
     id="metadata8"><rdf:RDF><cc:Work
         rdf:about=""><dc:format>image/svg+xml</dc:format><dc:type
           rdf:resource="http://purl.org/dc/dcmitype/StillImage" /></cc:Work></rdf:RDF></metadata><defs
     id="defs6"><clipPath
       id="clipPath20"
       clipPathUnits="userSpaceOnUse"><path
         id="path18"
         d="M 0,2030.92 V 0 h 1996.78 v 2030.92 z" /></clipPath></defs><g
     transform="matrix(1.3333333,0,0,-1.3333333,0,270.78667)"
     id="g10"><g
       transform="scale(0.1)"
       id="g12"><g
         id="g14"><g
           clip-path="url(#clipPath20)"
           id="g16"><path
             id="path22"
             style="fill:#ffffff;fill-opacity:1;fill-rule:nonzero;stroke:none"
             d="m 292.66,1533.12 c -10.871,0 -21.555,5.17 -28.211,14.79 -84.344,122.36 -69.207,287.56 35.957,392.81 115.016,115.1 300.34,120.75 421.907,12.91 14.148,-12.57 15.464,-34.21 2.917,-48.36 -12.542,-14.16 -34.199,-15.44 -48.316,-2.91 -94.547,83.86 -238.691,79.48 -328.121,-10.06 -81.801,-81.87 -93.578,-210.34 -28.008,-305.47 10.735,-15.57 6.813,-36.92 -8.738,-47.65 -5.922,-4.1 -12.68,-6.06 -19.387,-6.06" /><path
             id="path24"
             style="fill:#131112;fill-opacity:1;fill-rule:nonzero;stroke:none"
             d="m 1510.35,889.262 c -1.08,0 -2.15,0.047 -3.24,0.148 l -639.813,60.981 c -18.809,1.8 -32.617,18.519 -30.824,37.347 1.808,18.842 18.414,32.682 37.308,30.852 l 623.769,-59.461 106.62,106.701 -592.65,56.49 c -18.801,1.79 -32.61,18.52 -30.817,37.34 1.789,18.83 18.465,32.52 37.307,30.86 L 1683,1127.14 c 13.19,-1.27 24.47,-10.04 28.96,-22.51 4.49,-12.48 1.36,-26.42 -8.01,-35.81 L 1534.57,899.281 c -6.47,-6.441 -15.18,-10.019 -24.22,-10.019" /><path
             id="path26"
             style="fill:#131112;fill-opacity:1;fill-rule:nonzero;stroke:none"
             d="m 870.57,950.238 c -1.09,0 -2.199,0.051 -3.308,0.153 l -4.508,0.429 c -18.809,1.828 -32.598,18.551 -30.805,37.379 1.828,18.801 18.672,32.581 37.344,30.821 l 4.504,-0.43 c 18.808,-1.82 32.598,-18.55 30.805,-37.371 -1.707,-17.719 -16.606,-30.981 -34.032,-30.981" /><path
             id="path28"
             style="fill:#131112;fill-opacity:1;fill-rule:nonzero;stroke:none"
             d="M 84.2422,1333.64 637.594,779.809 1199.91,1420.24 c 52.78,60.14 49.85,151.6 -6.71,208.21 l -261.067,261.28 c -56.578,56.61 -147.938,59.54 -208.028,6.72 z M 639.199,695.488 c -9.062,0 -17.765,3.602 -24.199,10.032 L 10.0195,1311.01 c -6.69137,6.69 -10.308563,15.86 -9.9999687,25.33 0.3046877,9.47 4.5039087,18.38 11.6054687,24.61 l 667.305,586.94 c 87.144,76.65 219.597,72.34 301.601,-9.73 L 1241.6,1676.89 c 82.01,-82.09 86.26,-214.68 9.71,-301.88 L 664.902,707.141 c -6.23,-7.102 -15.14,-11.313 -24.593,-11.621 -0.375,-0.032 -0.735,-0.032 -1.11,-0.032" /><path
             id="path30"
             style="fill:#131112;fill-opacity:1;fill-rule:nonzero;stroke:none"
             d="m 1752.34,1110.17 c -2.65,0 -7.73,-0.65 -12.1,-5.02 L 1498.25,862.941 c -4.37,-4.371 -5.02,-9.453 -5.02,-12.101 0,-2.641 0.65,-7.738 5.02,-12.102 4.37,-4.347 9.45,-5.008 12.1,-5.008 2.66,0 7.73,0.641 12.08,5.008 l 242.01,242.212 c 4.37,4.37 5.02,9.46 5.02,12.1 0,2.65 -0.65,7.75 -5.02,12.1 -4.35,4.37 -9.46,5.02 -12.1,5.02 z M 1510.35,765.219 c -22.84,0 -44.34,8.91 -60.48,25.09 -16.17,16.179 -25.08,37.679 -25.08,60.531 0,22.89 8.91,44.39 25.08,60.558 l 241.98,242.192 c 33.33,33.38 87.62,33.38 121.01,0 16.16,-16.18 25.07,-37.68 25.07,-60.54 0,-22.88 -8.91,-44.39 -25.07,-60.55 L 1570.85,790.309 c -16.14,-16.18 -37.63,-25.09 -60.5,-25.09" /><path
             id="path32"
             style="fill:#131112;fill-opacity:1;fill-rule:nonzero;stroke:none"
             d="m 1849.65,576.68 c -41.54,-61.621 -78.69,-129.532 -78.69,-155.399 0,-43.441 35.29,-78.769 78.69,-78.769 43.4,0 78.71,35.328 78.71,78.769 0,25.867 -37.15,93.778 -78.71,155.399 z m 0,-302.66 c -81.13,0 -147.13,66.07 -147.13,147.261 0,70.188 99.67,208.188 119.64,235.141 12.93,17.43 42.03,17.43 54.97,0 19.98,-26.953 119.65,-164.953 119.65,-235.141 C 1996.8,340.07 1930.8,274.02 1849.65,274.02" /><path
             id="path34"
             style="fill:#131112;fill-opacity:1;fill-rule:nonzero;stroke:none"
             d="m 1267.87,679.441 c -41.54,-61.621 -78.7,-129.531 -78.7,-155.41 0,-43.429 35.3,-78.761 78.7,-78.761 43.4,0 78.71,35.332 78.71,78.761 0,25.879 -37.16,93.77 -78.71,155.41 z m 0,-302.671 c -81.14,0 -147.14,66.058 -147.14,147.25 0,70.191 99.67,208.191 119.64,235.14 12.94,17.43 42.04,17.43 54.97,0 19.99,-26.949 119.66,-164.949 119.66,-235.14 0.02,-81.192 -65.98,-147.25 -147.13,-147.25" /><path
             id="path36"
             style="fill:#131112;fill-opacity:1;fill-rule:nonzero;stroke:none"
             d="m 1541.65,302.66 c -41.54,-61.629 -78.69,-129.531 -78.69,-155.41 0,-43.43 35.29,-78.7617 78.69,-78.7617 43.4,0 78.71,35.3317 78.71,78.7617 0,25.879 -37.15,93.781 -78.71,155.41 z m 0,-302.66 c -81.14,0 -147.13,66.0703 -147.13,147.25 0,70.199 99.67,208.199 119.64,235.148 12.93,17.422 42.03,17.422 54.97,0 19.98,-26.949 119.65,-164.949 119.65,-235.148 C 1688.8,66.0703 1622.8,0 1541.65,0" /></g></g></g></g></svg>